<svg width="297" height="337" viewBox="0 0 297 337" fill="none" xmlns="http://www.w3.org/2000/svg">
<path d="M259.841 90.1011C282.879 116.24 296.86 150.554 296.86 188.1C296.86 269.994 230.394 336.46 148.5 336.46C66.6059 336.46 0.121002 269.994 0.121002 188.1C0.121002 109.381 61.5885 44.8884 139.104 40.0401V19.3129H109.282C97.1612 19.3129 97.1988 0.52124 109.282 0.52124H187.718C199.839 0.52124 199.82 19.3129 187.718 19.3129H157.896V40.0401C191.777 42.1636 222.596 55.6748 246.555 76.7966C253.658 69.6934 260.761 62.5901 267.883 55.4869C271.585 51.7661 277.411 52.048 281.169 55.4869C284.909 58.9257 284.646 65.2961 281.169 68.7726L259.841 90.1011ZM278.069 188.1C278.069 116.597 220.021 58.5311 148.5 58.5311C76.9789 58.5499 18.9127 116.597 18.9127 188.1C18.9127 259.621 76.9789 317.668 148.5 317.668C220.021 317.668 278.069 259.621 278.069 188.1ZM157.896 188.118C157.896 200.239 139.104 200.201 139.104 188.118V99.7225C139.104 87.6206 157.896 87.6394 157.896 99.7225V188.118Z" fill="#AA68C2"/>
</svg>
