<svg width="297" height="297" viewBox="0 0 297 297" fill="none" xmlns="http://www.w3.org/2000/svg">
<g clip-path="url(#clip0_8_333)">
<path d="M154.44 143.9V36.6782H142.56V155.78H236.248V143.9H154.44Z" fill="#AA68C2"/>
<path d="M295.138 124.932L283.409 126.799C284.543 133.934 285.12 141.232 285.12 148.5C285.12 223.835 223.832 285.12 148.5 285.12C73.1677 285.12 11.8798 223.835 11.8798 148.5C11.8798 73.1653 73.1683 11.8798 148.5 11.8798C195.698 11.8798 238.71 35.8427 263.692 75.126L216.108 65.2647L213.695 76.9008L280.079 90.6604L293.836 24.276L282.205 21.8629L272.782 67.3207C245.502 25.4729 199.227 0 148.5 0C66.6161 0 0 66.6161 0 148.5C0 230.384 66.6161 297 148.5 297C230.384 297 297 230.384 297 148.5C297 140.611 296.373 132.681 295.138 124.932Z" fill="#AA68C2"/>
</g>
<defs>
<clipPath id="clip0_8_333">
<rect width="297" height="297" fill="white"/>
</clipPath>
</defs>
</svg>
